:SAMPLES-PER-SECOND 30
:FULLY-SPECIFIED
:DEGREES
276
root  -55.6157 34.975 29.4066 -173.978 37.8932 177.734
RightUpLeg  -6.38454 -15.2808 -4.84352
RightLeg  10.6329 -4.78999 -0.581599
RightFoot  1.23084 -0.0236862 0.0645191
RightToes  -23.4477 -0.0986422 -0.202986
Spine  -1.72593 2.56457 -1.91826
Spine1  -3.43609 4.96075 -3.05559
HEad  -56.1896 -6.21926 -12.5587
LeftShoulder1  -1.94126e-019 -3.10601e-018 -2.51263e-017
LeftArm  -7.46252 22.3491 -78.0245
LeftForeArm  33.1548 -11.4584 -1.96302
LeftHand  -0.333917 -1.80019 5.57021
RightShoulder  -4.96962e-017 0 -2.36833e-017
RightArm  14.5218 8.81837 86.2939
RightForeArm  61.5851 51.8231 9.66458
RightHand  -0.927436 2.49597 -13.8132
LeftUpLeg  -5.95485 -9.64489 -2.3359
LeftLeg  1.2129 11.2988 -0.484179
LeftFoot  8.07677 -0.103478 1.75816
LeftToes  -16.6665 1.48321e-006 1.01846e-007
277
root  -55.6174 34.9881 29.406 -173.77 36.8658 177.87
RightUpLeg  -6.06884 -15.6948 -4.68615
RightLeg  10.1636 -5.38128 -0.60857
RightFoot  1.36441 -0.0226415 0.0382721
RightToes  -23.0313 -0.0989936 -0.202884
Spine  -1.70122 2.26829 -2.00421
Spine1  -3.36391 4.34115 -3.20763
HEad  -56.2393 -6.8265 -12.1295
LeftShoulder1  -1.94126e-019 -3.10601e-018 -2.51263e-017
LeftArm  -8.51045 22.8249 -77.5485
LeftForeArm  32.0579 -12.8237 -2.16532
LeftHand  -0.335975 -1.47113 5.84559
RightShoulder  -4.96962e-017 0 -2.36833e-017
RightArm  10.6354 5.95048 85.3919
RightForeArm  62.2815 60.2841 14.0191
RightHand  -0.830371 1.63421 -13.8492
LeftUpLeg  -6.38307 -10.0391 -2.17148
LeftLeg  1.67834 10.6707 -0.37135
LeftFoot  7.93962 -0.0954123 1.63702
LeftToes  -16.343 1.48321e-006 1.01846e-007
278
root  -55.6255 34.9809 29.4173 -173.511 35.9555 177.906
RightUpLeg  -6.1889 -15.9111 -4.55537
RightLeg  10.249 -6.06938 -0.695299
RightFoot  1.312 -0.0228282 0.0296513
RightToes  -23.1147 -0.099494 -0.202724
Spine  -1.61574 1.85781 -1.97619
Spine1  -3.16899 3.50491 -3.12105
HEad  -56.9632 -6.52504 -12.4657
LeftShoulder1  -1.94126e-019 -3.10601e-018 -2.51263e-017
LeftArm  -9.12031 23.6696 -77.2655
LeftForeArm  30.1045 -14.5617 -2.36704
LeftHand  -0.323531 -1.33331 5.73853
RightShoulder  -4.96962e-017 0 -2.36833e-017
RightArm  6.40647 3.06348 84.3315
RightForeArm  68.0867 69.3045 22.0861
RightHand  -0.714808 1.43133 -12.295
LeftUpLeg  -6.8953 -9.66174 -2.11857
LeftLeg  2.03387 9.51553 -0.272784
LeftFoot  7.83329 -0.0833431 1.45297
LeftToes  -16.2409 1.48321e-006 1.01846e-007
279
root  -55.6367 34.967 29.4237 -173.518 35.7124 177.746
RightUpLeg  -6.53885 -15.7953 -4.65096
RightLeg  10.8558 -6.4121 -0.80321
RightFoot  0.959213 -0.0261399 0.0657188
RightToes  -22.8431 -0.0993149 -0.202502
Spine  -1.46077 1.66107 -1.93892
Spine1  -2.85321 3.11793 -3.02657
HEad  -58.2403 -5.71044 -12.9002
LeftShoulder1  -1.94126e-019 -3.10601e-018 -2.51263e-017
LeftArm  -8.34171 24.4169 -77.0881
LeftForeArm  28.2594 -16.2141 -2.55622
LeftHand  -0.330779 -1.122 6.03661
RightShoulder  -4.96962e-017 0 -2.36833e-017
RightArm  3.64238 1.36243 82.984
RightForeArm  72.0529 73.0783 28.2697
RightHand  -0.781856 1.13556 -14.0095
LeftUpLeg  -6.9281 -9.70468 -2.23042
LeftLeg  1.84457 9.32063 -0.297913
LeftFoot  7.95176 -0.0827325 1.44647
LeftToes  -16.2878 1.48321e-006 1.01846e-007
280
root  -55.6239 34.9625 29.4259 -173.44 36.2047 177.735
RightUpLeg  -7.0054 -15.4612 -4.62163
RightLeg  11.4282 -6.26044 -0.847844
RightFoot  0.740723 -0.0290213 0.0956773
RightToes  -22.5027 -0.0989786 -0.202216
Spine  -1.48916 1.68008 -1.89919
Spine1  -2.9221 3.17878 -2.95455
HEad  -58.8926 -4.88885 -13.278
LeftShoulder1  -1.94126e-019 -3.10601e-018 -2.51263e-017
LeftArm  -7.77586 25.1557 -77.0638
LeftForeArm  27.8216 -16.7456 -2.61244
LeftHand  -0.333074 -1.10792 6.08965
RightShoulder  -4.96962e-017 0 -2.36833e-017
RightArm  5.15767 0.721933 80.8055
RightForeArm  64.5462 70.0165 23.6099
RightHand  -1.33587 3.42226 -17.7207
LeftUpLeg  -6.69415 -9.19296 -2.23153
LeftLeg  1.29319 9.26605 -0.385009
LeftFoot  8.13732 -0.0842735 1.47284
LeftToes  -16.4433 1.48321e-006 1.01846e-007
281
root  -55.5965 34.9612 29.4276 -173.278 37.1148 177.767
RightUpLeg  -7.43559 -15.1028 -4.54559
RightLeg  11.6601 -5.75329 -0.803128
RightFoot  0.714288 -0.0304917 0.105518
RightToes  -22.5556 -0.0985037 -0.201864
Spine  -1.55242 1.81743 -1.89477
Spine1  -3.06399 3.47479 -2.96013
HEad  -59.5075 -4.36129 -13.095
LeftShoulder1  -1.94126e-019 -3.10601e-018 -2.51263e-017
LeftArm  -7.31476 25.2317 -77.121
LeftForeArm  28.0726 -15.6799 -2.46026
LeftHand  -0.32491 -1.33136 5.76394
RightShoulder  -4.96962e-017 0 -2.36833e-017
RightArm  9.70914 1.14998 79.0735
RightForeArm  61.2355 63.8243 16.7819
RightHand  -1.59302 2.755 -22.6674
LeftUpLeg  -6.54327 -8.4414 -2.199
LeftLeg  0.893497 9.39172 -0.455479
LeftFoot  8.21458 -0.0863778 1.50745
LeftToes  -16.5644 1.48321e-006 1.01846e-007
282
root  -55.5664 34.9496 29.4305 -173.245 38.0964 177.796
RightUpLeg  -7.65733 -14.72 -4.49994
RightLeg  11.7156 -5.19692 -0.73081
RightFoot  0.689066 -0.0318982 0.114497
RightToes  -22.7507 -0.0979091 -0.201442
Spine  -1.60319 2.02167 -1.90009
Spine1  -3.1768 3.89388 -2.97971
HEad  -60.15 -4.24317 -12.687
LeftShoulder1  -1.94126e-019 -3.10601e-018 -2.51263e-017
LeftArm  -7.07073 24.623 -77.3197
LeftForeArm  29.6638 -13.5603 -2.18414
LeftHand  -0.314754 -1.5665 5.41786
RightShoulder  -4.96962e-017 0 -2.36833e-017
RightArm  11.5853 2.81682 79.304
RightForeArm  61.1494 56.7939 12.0231
RightHand  -1.7515 3.51526 -22.8057
LeftUpLeg  -6.50954 -7.74677 -2.19068
LeftLeg  1.00786 9.67663 -0.449913
LeftFoot  8.02494 -0.0870521 1.51935
LeftToes  -16.7362 1.48321e-006 1.01846e-007
283
root  -55.542 34.9347 29.4323 -173.323 38.9326 177.831
RightUpLeg  -7.75558 -14.2021 -4.48214
RightLeg  11.8253 -4.90093 -0.698866
RightFoot  0.62425 -0.033401 0.124906
RightToes  -22.9185 -0.0972133 -0.200948
Spine  -1.63485 2.2561 -1.83604
Spine1  -3.2501 4.37199 -2.85826
HEad  -60.3835 -4.43741 -12.37
LeftShoulder1  -1.94126e-019 -3.10601e-018 -2.51263e-017
LeftArm  -7.45828 23.8886 -77.7572
LeftForeArm  32.1441 -12.146 -2.04452
LeftHand  -0.309313 -1.79949 5.17239
RightShoulder  -4.96962e-017 0 -2.36833e-017
RightArm  12.9284 4.69258 79.9548
RightForeArm  61.3565 52.772 10.0777
RightHand  -1.78002 4.71938 -20.5155
LeftUpLeg  -6.59209 -7.28405 -2.19307
LeftLeg  1.56443 10.071 -0.370643
LeftFoot  7.63289 -0.0862716 1.50819
LeftToes  -16.5668 1.48321e-006 1.01846e-007
284
root  -55.5107 34.9397 29.4068 -173.399 39.2292 177.86
RightUpLeg  -7.53603 -14.0839 -4.48926
RightLeg  11.5839 -4.72426 -0.653407
RightFoot  0.689691 -0.0337507 0.118901
RightToes  -22.8158 -0.096435 -0.20038
Spine  -1.63015 2.43285 -1.77071
Spine1  -3.24184 4.72133 -2.73371
HEad  -60.185 -5.10616 -12.0176
LeftShoulder1  -1.94126e-019 -3.10601e-018 -2.51263e-017
LeftArm  -8.00997 23.1463 -78.1741
LeftForeArm  33.7269 -11.2013 -1.92984
LeftHand  -0.327118 -1.80509 5.45683
RightShoulder  -4.96962e-017 0 -2.36833e-017
RightArm  13.6662 4.67131 79.6537
RightForeArm  63.6859 55.1784 11.0314
RightHand  -1.54995 4.61903 -18.1168
LeftUpLeg  -6.56557 -7.25058 -2.1899
LeftLeg  1.88804 10.328 -0.321954
LeftFoot  7.40935 -0.0858005 1.50145
LeftToes  -16.3062 1.48321e-006 1.01846e-007
285
root  -55.4769 34.9614 29.3846 -173.418 39.0942 177.929
RightUpLeg  -7.1201 -13.9402 -4.43264
RightLeg  11.0516 -4.99156 -0.643079
RightFoot  0.970376 -0.0323443 0.0878685
RightToes  -22.8788 -0.095593 -0.199734
Spine  -1.58503 2.54907 -1.72762
Spine1  -3.14734 4.94219 -2.65184
HEad  -60.5304 -5.99652 -11.4176
LeftShoulder1  -1.94126e-019 -3.10601e-018 -2.51263e-017
LeftArm  -8.94669 22.6159 -78.3663
LeftForeArm  33.7266 -11.2131 -1.93118
LeftHand  -0.330992 -1.71805 5.58023
RightShoulder  -4.96962e-017 0 -2.36833e-017
RightArm  12.7746 2.96483 78.7903
RightForeArm  66.6505 60.7754 13.9992
RightHand  -1.35509 3.66962 -17.4975
LeftUpLeg  -6.51622 -7.24545 -2.13428
LeftLeg  2.00448 10.2149 -0.297817
LeftFoot  7.38058 -0.0842853 1.47813
LeftToes  -16.2022 1.48321e-006 1.01846e-007
